<svg width="1080" height="1080" viewBox="0 0 1080 1080" fill="none" xmlns="http://www.w3.org/2000/svg">
<g clip-path="url(#clip0)">
<rect width="1080" height="1080" fill="#6251D6"/>
<path fill-rule="evenodd" clip-rule="evenodd" d="M700.227 -228.836C763.394 -236.567 828.907 -251.615 886.417 -224.367C949.873 -194.301 1008.92 -142.104 1026.67 -74.1664C1044.14 -7.32556 997.262 55.7811 976.872 121.789C956.078 189.107 965.453 277.263 906.295 315.53C847.021 353.872 770.273 309.514 700.227 300.741C640.98 293.32 575.533 305.044 528.535 268.214C482.087 231.814 474.24 167.349 457.719 110.697C441.765 55.9852 418.274 0.191803 434.439 -54.4581C450.801 -109.773 496.218 -150.867 544.448 -182.509C590.88 -212.972 645.106 -222.089 700.227 -228.836Z" fill="#6858D8"/>
<path fill-rule="evenodd" clip-rule="evenodd" d="M326.401 412.125C408.652 421.072 482.61 467.086 539.401 527.224C589.515 580.293 596.751 655.751 621.347 724.46C646.943 795.96 705.567 863.657 686.116 937.065C666.49 1011.13 585.028 1045.71 523.954 1092.02C461.333 1139.5 404.069 1221.88 326.401 1209.81C247.408 1197.53 236.023 1080.32 168.952 1036.85C95.0151 988.917 -39.2317 1031.22 -73.9745 950.27C-107.633 871.849 9.52723 807.061 35.43 725.751C61.5951 643.618 18.1855 540.11 76.8242 476.906C136.733 412.332 238.81 402.597 326.401 412.125Z" fill="#6858D8"/>
<path d="M318.871 683C405.413 683 485.657 622.427 492.618 533.681C495.803 493.064 491.615 458.707 463.805 435.931C437.339 414.257 392.426 405.895 323.569 405.895C266.081 405.895 222.623 413.216 194.136 433.69C164.283 455.147 153.59 488.803 156.067 533.397C160.972 621.688 231.459 683 318.871 683Z" stroke="white" stroke-width="25"/>
<path d="M746.682 683C833.223 683 913.468 622.427 920.428 533.681C923.614 493.064 919.426 458.707 891.615 435.931C865.149 414.257 820.236 405.895 751.38 405.895C693.891 405.895 650.433 413.216 621.946 433.69C592.093 455.147 581.4 488.803 583.878 533.397C588.783 621.688 659.269 683 746.682 683Z" stroke="white" stroke-width="25"/>
<path d="M486.419 474.766C500.512 464.327 541.538 449.713 592.898 474.766" stroke="white" stroke-width="25"/>
<path d="M110.611 429.356C112.177 426.746 229.617 409 229.617 409C157.572 445.613 149.864 511.623 150.203 537.824C150.621 541.102 150.941 544.608 151.15 548.362C151.278 550.671 150.313 546.361 150.203 537.824C143.089 482.045 107.566 492.514 109.045 474.766C109.045 474.766 109.045 431.966 110.611 429.356Z" fill="white"/>
<path d="M968.707 429.356C967.141 426.746 849.701 409 849.701 409C921.746 445.613 929.453 511.623 929.115 537.824C928.697 541.102 928.377 544.608 928.168 548.362C928.04 550.671 929.005 546.361 929.115 537.824C936.229 482.045 971.752 492.514 970.273 474.766C970.273 474.766 970.273 431.966 968.707 429.356Z" fill="white"/>
</g>
<defs>
<clipPath id="clip0">
<rect width="1080" height="1080" fill="white"/>
</clipPath>
</defs>
</svg>
